<svg width="296" height="40" viewBox="0 0 296 40" fill="none" xmlns="http://www.w3.org/2000/svg">
<path d="M26.5429 13.3319H4.70201L0 40H26.6204L27.5173 34.9053H22.7336L26.5429 13.3319Z" fill="#F99D1C"/>
<path d="M28.9285 0L26.5624 13.3298H34.8092C39.4639 13.3298 41.7095 15.1108 41.7095 18.1891C41.7095 18.6429 41.6127 19.3236 41.5138 19.8417L41.0922 22.2713C40.3759 26.2871 38.7154 28.3293 32.9874 28.3293H28.6897L27.5175 34.9054H57.8052L64 0H28.9263H28.9285Z" fill="#F15F26"/>
<path d="M36.3706 21.8197L36.6631 20.1029C36.7277 19.7133 36.7599 19.39 36.7599 19.1631C36.7599 18.0607 36.1082 17.5426 34.6434 17.5426H30.6082L29.4359 24.215H33.3743C35.5876 24.215 36.0759 23.438 36.3684 21.8175L36.3706 21.8197Z" fill="#F15F26"/>
<path d="M77.8338 23.7736L76.423 31.747H73.6014L77.5308 9.5242H85.3895C89.4547 9.5242 91.1633 11.1594 91.1633 13.8639C91.1633 14.2999 91.132 14.6996 91.0275 15.2655L90.4893 18.3334C89.8831 21.8685 88.2738 23.7736 82.9336 23.7736H77.8286H77.8338ZM88.2477 15.0994C88.3156 14.7308 88.3469 14.4297 88.3469 14.1338C88.3469 12.5973 87.4064 12.0315 85.1543 12.0315H79.9135L78.2675 21.3078H83.4718C86.3614 21.3078 87.3019 20.3734 87.7042 18.1361L88.2424 15.0994H88.2477Z" fill="#F15F26"/>
<path d="M94.7949 27.4126C94.7269 27.7811 94.7269 28.0147 94.7269 28.1497C94.7269 29.1827 95.2285 29.7849 96.979 29.7849C98.7294 29.7849 100.741 29.1516 102.957 28.0822L103.563 30.1171C101.478 31.2539 99.3303 32.0845 96.608 32.0845C93.3161 32.0845 92.0098 30.5479 92.0098 28.3158C92.0098 27.9161 92.0412 27.3814 92.1457 26.8156L93.1176 21.3443C93.8543 17.2382 95.704 15.1721 100.339 15.1721C103.061 15.1721 105.005 16.4387 105.005 18.8422C105.005 21.5778 103.73 22.9483 99.1265 24.4796C97.1462 25.1441 96.5087 25.3154 95.0979 25.7463L94.7949 27.4126ZM102.418 19.1381C102.418 18.0687 101.614 17.4043 100.135 17.4043C97.5799 17.4043 96.4094 18.3386 95.9392 20.9757L95.5368 23.213C96.446 22.9483 96.979 22.777 98.5622 22.3098C101.285 21.5104 102.424 20.4774 102.424 19.1381H102.418Z" fill="#F15F26"/>
<path d="M114.911 36.9533C116.322 35.6503 116.892 34.6173 117.263 32.4838L119.88 17.8036L120.283 15.504L120.79 12.6697C121.328 9.60177 122.77 8.2002 125.895 8.2002C127.07 8.2002 128.277 8.4338 129.39 8.86984L128.821 10.9722C127.88 10.6711 126.908 10.505 126.067 10.505C124.421 10.505 123.815 11.1072 123.549 12.6749L123.047 15.5092H127.818L127.211 17.8088H122.645L119.922 33.1223C119.452 35.6919 118.611 36.9273 116.599 38.6611L114.917 36.9585L114.911 36.9533Z" fill="#F15F26"/>
<path d="M127.406 25.9122L128.247 21.1728C128.952 17.2017 131.236 15.1668 135.938 15.1668C139.701 15.1668 141.65 17.238 141.65 20.0048C141.65 20.2384 141.65 20.607 141.55 21.1417L140.641 26.2445C140.004 29.9145 138.055 32.0844 132.986 32.0844C128.32 32.0844 126.773 29.4162 127.411 25.9122H127.406ZM138.791 21.1417C138.859 20.7731 138.891 20.4409 138.891 20.171C138.891 18.4008 137.851 17.5339 135.531 17.5339C132.845 17.5339 131.434 18.8005 130.995 21.3389L130.154 26.042C129.783 28.2793 130.321 29.7121 133.378 29.7121C136.2 29.7121 137.475 28.5129 137.914 26.0732L138.786 21.1365L138.791 21.1417Z" fill="#F15F26"/>
<path d="M175.941 19.2366C175.972 19.0341 176.009 18.8005 176.009 18.6708C176.009 18.0011 175.674 17.7675 174.865 17.7675C173.219 17.7675 170.496 19.0341 168.72 20.2021L166.671 31.747H163.918L166.133 19.2366C166.165 19.0341 166.201 18.8005 166.201 18.6708C166.201 18.0011 165.867 17.7675 165.062 17.7675C163.416 17.7675 160.898 18.9666 158.881 20.2021L156.832 31.747H154.079L156.932 15.6963L159.351 15.2966L159.147 17.6014C160.762 16.4646 164.116 15.1668 166.065 15.1668C167.915 15.1668 168.819 16.1012 168.955 17.6014C170.737 16.3659 173.924 15.1668 175.873 15.1668C177.921 15.1668 178.794 16.2673 178.794 18.0375C178.794 18.406 178.763 18.9044 178.658 19.439L176.474 31.7521H173.72L175.936 19.2418L175.941 19.2366Z" fill="#F15F26"/>
<path d="M193.541 31.7524H191.257L191.356 29.785C189.543 31.389 187.328 32.0898 185.243 32.0898C182.724 32.0898 181.784 30.7194 181.784 28.8558C181.784 28.4561 181.852 28.02 181.92 27.5892L183.059 21.1523C183.764 17.2123 185.243 15.1774 190.416 15.1774C192.433 15.1774 194.68 15.6758 196.294 16.2779L193.541 31.7576V31.7524ZM193.238 17.9391C192.365 17.7055 191.221 17.5394 190.082 17.5394C187.563 17.5394 186.319 18.3076 185.75 21.5105L184.71 27.3815C184.642 27.7813 184.574 28.2173 184.574 28.5184C184.574 29.2867 184.909 29.7175 185.917 29.7175C187.965 29.7175 189.778 28.5807 191.66 26.8832L193.238 17.9391Z" fill="#F15F26"/>
<path d="M213.557 18.0376C213.557 18.4061 213.521 18.9045 213.422 19.4392L211.237 31.7523H208.484L210.699 19.2419C210.731 19.0394 210.767 18.8058 210.767 18.6761C210.767 18.0064 210.433 17.7728 209.628 17.7728C207.982 17.7728 205.464 18.972 203.447 20.2074L201.398 31.7523H198.645L201.498 15.7016L203.917 15.3019L203.713 17.6067C205.328 16.4699 208.682 15.1721 210.631 15.1721C212.68 15.1721 213.552 16.2726 213.552 18.0428L213.557 18.0376Z" fill="#F15F26"/>
<path d="M217.866 29.478C217.866 29.3431 217.866 29.1095 217.934 28.7461L219.883 17.7671H216.993L217.395 15.4986H220.285L220.99 11.4963L223.812 11.1277L223.039 15.4986H227.538L227.067 17.7671H222.636L220.687 28.7097C220.656 28.9122 220.656 28.9797 220.656 29.0783C220.656 29.5455 220.922 29.7791 221.597 29.7791C222.501 29.7791 223.478 29.5818 224.617 29.0783L225.254 30.9782C223.843 31.679 222.433 32.0787 220.818 32.0787C218.801 32.0787 217.861 30.9419 217.861 29.478H217.866Z" fill="#F15F26"/>
<path d="M116.656 15.1668C114.943 15.8987 113.297 16.9006 111.99 17.97L112.293 15.3018L109.843 15.7015L106.99 31.7521H109.744L111.656 20.9392C113.025 19.9322 114.545 18.9407 116.155 18.0271L116.656 15.1668Z" fill="#F15F26"/>
<path d="M153.198 15.1668C151.484 15.8987 149.843 16.9006 148.531 17.97L148.834 15.3018L146.384 15.7015L143.531 31.7521H146.285L148.197 20.9392C149.566 19.9322 151.087 18.9407 152.696 18.0271L153.198 15.1668Z" fill="#F15F26"/>
<path d="M286.817 26.4745C286.817 27.1759 286.962 27.8106 287.25 28.3783C287.545 28.9461 287.947 29.397 288.458 29.7311C288.968 30.0594 289.56 30.2239 290.231 30.2239C290.903 30.2239 291.494 30.0594 292.005 29.7311C292.521 29.397 292.923 28.9461 293.212 28.3783C293.501 27.8106 293.645 27.1759 293.645 26.4745C293.645 25.7731 293.501 25.1413 293.212 24.579C292.923 24.0113 292.521 23.5603 292.005 23.2264C291.494 22.8923 290.903 22.7253 290.231 22.7253C289.56 22.7253 288.968 22.8923 288.458 23.2264C287.947 23.5603 287.545 24.0113 287.25 24.579C286.962 25.1413 286.817 25.7731 286.817 26.4745ZM284.653 26.4745C284.653 25.6729 284.792 24.927 285.069 24.2367C285.352 23.5409 285.746 22.9341 286.251 22.4164C286.757 21.8987 287.348 21.4951 288.025 21.2056C288.708 20.9162 289.443 20.7714 290.231 20.7714C291.031 20.7714 291.769 20.9162 292.446 21.2056C293.123 21.4951 293.712 21.8987 294.211 22.4164C294.716 22.9341 295.107 23.5409 295.385 24.2367C295.663 24.927 295.801 25.6729 295.801 26.4745C295.801 27.2817 295.665 28.0332 295.393 28.7291C295.121 29.4193 294.736 30.0259 294.236 30.5494C293.737 31.0672 293.148 31.4708 292.471 31.76C291.794 32.0496 291.047 32.1942 290.231 32.1942C289.404 32.1942 288.649 32.0496 287.967 31.76C287.289 31.4708 286.701 31.0672 286.201 30.5494C285.708 30.0259 285.324 29.4193 285.053 28.7291C284.786 28.0332 284.653 27.2817 284.653 26.4745Z" fill="#F99D1C"/>
<path d="M279.494 20.9716H281.575V31.9937H279.494V20.9716Z" fill="#F99D1C"/>
<path d="M268.172 20.9716H271.203C272.374 20.9716 273.34 21.2082 274.1 21.6814C274.866 22.149 275.438 22.7975 275.815 23.627C276.193 24.4564 276.382 25.4055 276.382 26.4743C276.382 27.5487 276.193 28.5006 275.815 29.3301C275.438 30.1596 274.866 30.8109 274.1 31.2838C273.34 31.7571 272.374 31.9937 271.203 31.9937H268.172V20.9716ZM270.237 22.8337V30.1317H271.02C271.736 30.1317 272.324 29.976 272.785 29.664C273.251 29.3467 273.598 28.9126 273.826 28.3614C274.059 27.8103 274.175 27.1869 274.175 26.491C274.181 25.7896 274.07 25.1633 273.842 24.6122C273.615 24.0611 273.265 23.627 272.793 23.3096C272.327 22.9923 271.736 22.8337 271.02 22.8337H270.237Z" fill="#F99D1C"/>
<path d="M262.796 20.9716H264.877V27.7686C264.877 28.676 264.697 29.4609 264.336 30.1234C263.981 30.7858 263.479 31.2977 262.829 31.6599C262.185 32.016 261.425 32.1941 260.548 32.1941C259.665 32.1941 258.896 32.016 258.241 31.6599C257.592 31.2977 257.087 30.7858 256.726 30.1234C256.371 29.4609 256.193 28.676 256.193 27.7686V20.9716H258.266V27.66C258.266 28.2167 258.361 28.6927 258.549 29.0879C258.744 29.4776 259.013 29.7756 259.357 29.9815C259.701 30.1819 260.098 30.2819 260.548 30.2819C260.992 30.2819 261.383 30.1819 261.722 29.9815C262.061 29.7756 262.324 29.4776 262.513 29.0879C262.701 28.6927 262.796 28.2167 262.796 27.66V20.9716Z" fill="#F99D1C"/>
<path d="M248.576 22.817H245.82V20.9716H253.405V22.817H250.658V31.9937H248.576V22.817Z" fill="#F99D1C"/>
<path d="M239.687 20.7714C240.347 20.7714 240.922 20.8466 241.41 20.9969C241.904 21.1416 242.296 21.2975 242.584 21.4645C242.878 21.6315 243.056 21.74 243.117 21.7901L242.101 23.4852C242.012 23.4128 241.86 23.3126 241.643 23.1846C241.433 23.051 241.177 22.9341 240.877 22.8339C240.578 22.7281 240.253 22.6752 239.903 22.6752C239.398 22.6752 238.993 22.7727 238.688 22.9675C238.388 23.1568 238.238 23.4323 238.238 23.7941C238.238 24.0391 238.318 24.259 238.48 24.4538C238.64 24.6431 238.876 24.8212 239.187 24.9882C239.504 25.1552 239.889 25.3306 240.345 25.5143C240.744 25.6701 241.124 25.8511 241.485 26.057C241.852 26.263 242.176 26.5051 242.459 26.7835C242.748 27.0618 242.975 27.3847 243.142 27.7521C243.314 28.1195 243.4 28.5398 243.4 29.0129C243.4 29.5418 243.292 30.004 243.075 30.3992C242.865 30.7944 242.57 31.1254 242.193 31.3927C241.821 31.66 241.394 31.8604 240.911 31.9938C240.428 32.1277 239.92 32.1942 239.387 32.1942C238.665 32.1942 238.016 32.111 237.439 31.9436C236.867 31.7711 236.403 31.5875 236.048 31.3927C235.693 31.1979 235.485 31.0728 235.424 31.017L236.49 29.2551C236.556 29.3052 236.681 29.3859 236.864 29.4973C237.053 29.6086 237.28 29.7228 237.547 29.8395C237.819 29.9566 238.113 30.0566 238.43 30.1402C238.751 30.2239 239.079 30.2653 239.412 30.2653C240.011 30.2653 240.464 30.1402 240.769 29.8897C241.074 29.6391 241.227 29.3135 241.227 28.9128C241.227 28.6121 241.13 28.3477 240.936 28.1195C240.741 27.8913 240.467 27.6825 240.111 27.4933C239.762 27.2984 239.343 27.1008 238.854 26.9004C238.366 26.6944 237.91 26.455 237.489 26.1823C237.072 25.9039 236.737 25.5644 236.481 25.1636C236.226 24.7572 236.098 24.259 236.098 23.6689C236.098 23.0844 236.262 22.575 236.59 22.1408C236.922 21.7066 237.361 21.3699 237.905 21.1305C238.455 20.8911 239.048 20.7714 239.687 20.7714Z" fill="#F99D1C"/>
</svg>
